# xmcd
#
# Track frame offsets: 
#        150
#        27867
#        48017
#        66007
#        84850
#        112257
#        125975
#        140020
#        153377
#        167680
#
# Disc length: 2439 seconds
#
# Revision: 3
# Processed by: cddbd v1.5.2PL0 Copyright (c) Steve Scherf et al.
# Submitted via: ExactAudioCopyFreeDBPlugin 1.0
#
DISCID=8409850a
DTITLE=Various Artist - A Celebration of Blues - Great Slide Guitar
DYEAR=1997
DGENRE=Blues
TTITLE0=Johnny Winter - Good time Woman
TTITLE1=Amos Garrett - Walkin' Blues
TTITLE2=Joanna Connor - Meditations
TTITLE3=Ronnie Earl - Knee Squeeze
TTITLE4=Roy Rogers with Norton Buffalo - Mercury Blues
TTITLE5=Paul James - Red Hot Mama
TTITLE6=Studebaker John - Talk To Me Baby
TTITLE7=Ellen McIlwaine - I Want Watcha Got
TTITLE8=Anson Funderburgh - Make A Little Love Tonight
TTITLE9=Bob Margolin - Big Tree Blues
EXTD=
EXTT0=interpret: Johnny Winter\n
EXTT1=interpret: Amos Garret\n
EXTT2=interpret: Joanna Connor\n
EXTT3=interpret: Ronnie Earl\n
EXTT4=interprets: Roy Rogers with Norton \nBuffalo\n
EXTT5=interpret: Paul James\n
EXTT6=interpret: Studebaker John\n
EXTT7=interpret: Ellen McIlwaine\n
EXTT8=interpret: Anson Punderburgh\n
EXTT9=interpret: Bob Margolin\n
PLAYORDER=
